<svg fill="none" height="381" viewBox="0 0 516 381" width="516" xmlns="http://www.w3.org/2000/svg"><g opacity=".1" stroke="#aa9631" stroke-miterlimit="10" stroke-width="4"><path d="m-4 0v927.951h544.831"/><path d="m43.9805 0v885.256h496.8465"/><path d="m512.112 0v839.916h-468.1315"/><path d="m475.757.986328v790.144672h-430.7062"/><path d="m438.057 0v748.104h-394.0765"/><path d="m88.4316.986328v694.087672h350.1424"/><path d="m128.713.986328v647.608672h309.861"/><path d="m410.686 28.874h-250.987v582.538h250.987z"/><path d="m410.479 56.2988h-218.008v525.5612h218.008"/><path d="m410.687 100.142h-182.818v452.396h182.818"/><path d="m410.472 157.932h-150.376v364.983h150.376"/><path d="m410.477 211.208h-117.883v269.015h117.883"/><path d="m385.898 211.691v241.692h-92.959"/><path d="m358.01 211.691v213.804h-65.071"/><path d="m325.465 211.208h-32.871v185.137h32.871z" fill="#aa9631"/></g></svg>